
        <svg xmlns="http://www.w3.org/2000/svg" xmlns:xlink="http://www.w3.org/1999/xlink" version="1.1" width="3166.6666666666665" height="1191.6666666666667" viewBox="0 0 3166.6666666666665 1191.6666666666667">
			
			<g transform="scale(8.333333333333334) translate(10, 10)">
				<defs id="SvgjsDefs2282"/><g id="SvgjsG2283" featureKey="rootContainer" transform="matrix(1,0,0,1,0,0)" fill="#fff"><rect xmlns="http://www.w3.org/2000/svg" width="360" height="123" rx="10" ry="10"/></g><g id="SvgjsG2284" featureKey="symbolFeature-0" transform="matrix(0.8343676036305736,0,0,0.8343676036305736,19.956006213228818,11.626062923992734)" fill="#000000"><g xmlns="http://www.w3.org/2000/svg"><path d="M58.5,49.5L10,10.8c-1.5-1.2-3.7-1-5,0.7l-4.2,6c-1.2,1.7-0.7,4,0.7,5.2L36,50.3c1.2,1,1.2,3,0,4L1.5,81.8   C0,83-0.5,85.5,0.8,87L5,93.5c1.2,1.7,3.5,2,5,0.7l48.5-38.7C60.5,54,60.5,51,58.5,49.5z"/><path d="M116.2,95H48.7c-2,0-3.7,1.7-3.7,3.7v7.5c0,2,1.7,3.7,3.7,3.7h67.5c2,0,3.7-1.7,3.7-3.7v-7.5C120,96.7,118.2,95,116.2,95z"/></g></g><g id="SvgjsG2285" featureKey="nameFeature-0" transform="matrix(2.488552538709198,0,0,2.488552538709198,131.937091530801,0.11447698617666191)" fill="#000000"><path d="M16.72 10 q4.76 0 7.68 2.74 t2.92 7.3 t-2.88 7.28 t-7.72 2.72 l-7.64 0 l0 8.16 q0 0.56 -0.42 0.98 t-0.98 0.42 l-3.04 0 q-0.56 0 -0.98 -0.42 t-0.42 -0.98 l0 -12.4 q0 -0.56 0.42 -0.98 t0.98 -0.42 l11.84 0 q2.68 0 3.84 -1.16 q1.16 -1.04 1.16 -3.16 t-1.2 -3.26 t-3.8 -1.14 l-11.84 0 q-0.56 0 -0.98 -0.42 t-0.42 -0.98 l0 -2.88 q0 -0.56 0.42 -0.98 t0.98 -0.42 l12.08 0 z M52.56 33.92 q0.6 0 1 0.42 t0.4 1.02 l0 2.92 q0 0.56 -0.4 0.98 t-1 0.42 l-19.76 0 q-0.56 0 -0.98 -0.42 t-0.42 -0.98 l0 -2.92 q0 -0.6 0.42 -1.02 t0.98 -0.42 l19.76 0 z M32.8 27.72 q-0.56 0 -0.98 -0.42 t-0.42 -0.98 l0 -3 q0 -0.56 0.42 -0.98 t0.98 -0.42 l17.96 0 q0.6 0 1.02 0.42 t0.42 0.98 l0 3 q0 0.56 -0.42 0.98 t-1.02 0.42 l-17.96 0 z M52.56 10 q0.6 0 1 0.42 t0.4 0.98 l0 2.92 q0 0.6 -0.4 1.02 t-1 0.42 l-19.76 0 q-0.56 0 -0.98 -0.42 t-0.42 -1.02 l0 -2.92 q0 -0.56 0.42 -0.98 t0.98 -0.42 l19.76 0 z M83.32000000000001 37.64 q0.24 0.32 0.28 0.72 t-0.12 0.76 t-0.52 0.58 t-0.76 0.22 l-3.88 0 q-0.72 0 -1.16 -0.56 l-7.64 -10.12 l-7.64 10.12 q-0.44 0.56 -1.12 0.56 l-3.92 0 q-0.4 0 -0.74 -0.2 t-0.5 -0.56 q-0.4 -0.84 0.12 -1.52 l20.72 -27.08 q0.44 -0.56 1.12 -0.56 l3.88 0 q0.4 0 0.74 0.22 t0.54 0.58 t0.16 0.76 t-0.32 0.72 l-9.4 12.24 z M62.24 19.76 l-5.76 -7.48 q-0.28 -0.32 -0.32 -0.72 t0.16 -0.76 t0.54 -0.58 t0.74 -0.22 l3.88 0 q0.32 0 0.64 0.14 t0.48 0.42 l5.64 7.48 q0.56 0.68 0.16 1.52 q-0.16 0.36 -0.5 0.56 t-0.78 0.2 l-3.76 0 q-0.32 0 -0.64 -0.14 t-0.48 -0.42 z"/></g>
			</g>
		</svg>
	